HIERARCHY
ROOT Hips
{
    OFFSET 0.000000 0.000000 0.000000
    CHANNELS 6 Xposition Yposition Zposition Zrotation Xrotation Yrotation
    JOINT Spine
    {
        OFFSET -0.000000 7.236184 0.000000
        CHANNELS 3 Zrotation Xrotation Yrotation
        JOINT Spine1
        {
            OFFSET -0.000000 20.420147 0.000000
            CHANNELS 3 Zrotation Xrotation Yrotation
            JOINT Neck
            {
                OFFSET -0.000000 20.336288 1.848754
                CHANNELS 3 Zrotation Xrotation Yrotation
                JOINT Head
                {
                    OFFSET -0.000000 12.354461 -1.764923
                    CHANNELS 3 Zrotation Xrotation Yrotation
                    End Site
                    {
                        OFFSET -0.000000 22.061537 0.000000
                    }
                }
            }
            JOINT LeftShoulder
            {
                OFFSET 3.573296 18.396038 -0.314103
                CHANNELS 3 Zrotation Xrotation Yrotation
                JOINT LeftArm
                {
                    OFFSET 10.880760 0.000000 0.000000
                    CHANNELS 3 Zrotation Xrotation Yrotation
                    JOINT LeftForeArm
                    {
                        OFFSET 27.185530 0.000000 0.000000
                        CHANNELS 3 Zrotation Xrotation Yrotation
                        JOINT LeftHand
                        {
                            OFFSET 27.825975 0.000000 0.000000
                            CHANNELS 3 Zrotation Xrotation Yrotation
                            End Site
                            {
                                OFFSET 13.236923 0.000000 0.000000
                            }
                        }
                    }
                }
            }
            JOINT RightShoulder
            {
                OFFSET -3.474926 18.396038 -0.314103
                CHANNELS 3 Zrotation Xrotation Yrotation
                JOINT RightArm
                {
                    OFFSET -10.880760 0.000000 0.000000
                    CHANNELS 3 Zrotation Xrotation Yrotation
                    JOINT RightForeArm
                    {
                        OFFSET -27.185530 0.000000 0.000000
                        CHANNELS 3 Zrotation Xrotation Yrotation
                        JOINT RightHand
                        {
                            OFFSET -27.825975 0.000000 0.000000
                            CHANNELS 3 Zrotation Xrotation Yrotation
                            End Site
                            {
                                OFFSET -13.236923 0.000000 0.000000
                            }
                        }
                    }
                }
            }
        }
    }
    JOINT LeftUpLeg
    {
        OFFSET 8.824615 0.000000 0.000000
        CHANNELS 3 Zrotation Xrotation Yrotation
        JOINT LeftLeg
        {
            OFFSET -0.000000 -35.111282 0.000000
            CHANNELS 3 Zrotation Xrotation Yrotation
            JOINT LeftFoot
            {
                OFFSET -0.000000 -42.324711 0.000000
                CHANNELS 3 Zrotation Xrotation Yrotation
                JOINT LeftToeBase
                {
                    OFFSET -0.000000 -5.735999 13.236923
                    CHANNELS 3 Zrotation Xrotation Yrotation
                    End Site
                    {
                        OFFSET -0.000000 0.000000 3.529846
                    }
                }
            }
        }
    }
    JOINT RightUpLeg
    {
        OFFSET -8.824615 0.000000 0.000000
        CHANNELS 3 Zrotation Xrotation Yrotation
        JOINT RightLeg
        {
            OFFSET -0.000000 -35.111282 0.000000
            CHANNELS 3 Zrotation Xrotation Yrotation
            JOINT RightFoot
            {
                OFFSET -0.000000 -42.324711 0.000000
                CHANNELS 3 Zrotation Xrotation Yrotation
                JOINT RightToeBase
                {
                    OFFSET -0.000000 -5.735999 13.236923
                    CHANNELS 3 Zrotation Xrotation Yrotation
                    End Site
                    {
                        OFFSET -0.000000 0.000000 3.529846
                    }
                }
            }
        }
    }
}
MOTION
Frames:    9
Frame Time:    0.008333
10.470114    88.929893    91.754547    30.507734    47.776215    -104.388283    -0.241211    -6.362268    1.498289    18.978443    9.651396    -0.105234    10.618527    23.679142    -23.516546    29.924196    11.711499    -22.812105    12.683928    -0.070289    -18.079758    -11.312572    15.247502    -62.853310    28.487053    -22.234877    -111.710358    60.613010    3.609833    -30.867924    6.332287    11.076569    -6.088877    33.889847    7.646708    19.412830    -6.440345    -19.600845    6.289303    -28.201845    -17.419025    -7.737572    56.496387    -36.622353    26.067204    -1.498722    27.814318    13.833101    4.662099    -12.845061    -13.672873    0.942643    3.343966    -1.038786    -56.501614    -30.813482    -22.299875    4.650257    27.711098    -4.647325    6.615171    2.291983    -18.050495    1.513103    0.229387    -1.636010    
10.429756    88.855103    91.742065    29.994379    47.745789    -103.622543    -0.136423    -6.259766    1.333762    18.764273    9.671296    -0.260407    10.414182    23.786997    -23.533560    30.020941    11.462272    -22.762583    12.579570    -0.073677    -18.111038    -11.240682    14.975791    -63.237095    28.899496    -21.683189    -110.190025    60.495525    3.722145    -30.655819    6.460421    11.293555    -6.017133    34.324726    7.717745    18.937134    -6.404851    -19.511021    6.271164    -27.936899    -17.382410    -7.597779    56.276791    -36.767799    26.163670    -1.556808    27.997086    13.640154    4.475766    -12.960077    -13.762960    0.987071    3.307298    -1.087812    -56.735786    -31.156441    -23.015072    5.145746    30.540506    -4.193264    6.508698    2.504357    -18.062149    1.518698    -0.216766    -1.643063    
10.374934    88.785980    91.731491    29.440117    47.698822    -102.822098    -0.030429    -6.151908    1.151540    18.557756    9.672831    -0.430792    10.201229    23.875141    -23.555136    30.089941    11.203405    -22.719011    12.500299    -0.117976    -18.154253    -11.150209    14.666966    -63.682648    29.386587    -21.132349    -108.505775    60.411758    3.904833    -30.305277    6.585084    11.501673    -5.951404    34.775753    7.776361    18.420362    -6.367898    -19.430428    6.248553    -27.670078    -17.352478    -7.468485    56.009155    -36.887558    26.250113    -1.595702    28.168591    13.423025    4.291026    -13.061790    -13.856446    1.029327    3.251888    -1.134487    -57.014591    -31.481358    -23.685925    5.744413    33.563396    -3.887312    6.403995    2.739257    -18.082966    1.530596    -0.655477    -1.656938    
10.305648    88.722885    91.723068    28.853081    47.633263    -102.005318    0.074173    -6.040614    0.954363    18.362434    9.654910    -0.613637    9.980965    23.942762    -23.578808    30.128756    10.934181    -22.678852    12.447803    -0.202831    -18.205940    -11.042363    14.322451    -64.176765    29.936914    -20.586218    -106.663940    60.354568    4.130713    -29.830128    6.704783    11.698983    -5.895707    35.240425    7.813009    17.865944    -6.329203    -19.356329    6.228883    -27.400148    -17.327206    -7.345077    55.695656    -36.974735    26.326338    -1.612766    28.328489    13.183838    4.118441    -13.150602    -13.946945    1.066550    3.177416    -1.175661    -57.330528    -31.787985    -24.307121    6.462253    36.736298    -3.763714    6.303665    2.988265    -18.091730    1.549229    -1.076573    -1.678091    
10.220904    88.665726    91.717079    28.234983    47.546108    -101.183601    0.176541    -5.927198    0.743158    18.178953    9.617244    -0.808100    9.752194    23.989117    -23.602474    30.135139    10.651253    -22.639202    12.423352    -0.330007    -18.263119    -10.921035    13.939611    -64.709106    30.540203    -20.041933    -104.644043    60.307625    4.357871    -29.256739    6.819623    11.885563    -5.853721    35.719440    7.821069    17.271868    -6.288612    -19.284067    6.220092    -27.122486    -17.303288    -7.221475    55.334976    -37.021324    26.391768    -1.606640    28.477533    12.923900    3.966106    -13.227852    -14.027794    1.096383    3.081939    -1.208743    -57.680046    -32.083092    -24.886818    7.326762    40.056652    -3.851403    6.210343    3.245542    -18.066174    1.574300    -1.477259    -1.706204    
10.121704    88.616089    91.714142    27.602278    47.436562    -100.388397    0.272923    -5.815422    0.523706    18.012712    9.560636    -1.008743    9.518774    24.012768    -23.623156    30.106281    10.358418    -22.597973    12.428274    -0.497174    -18.320360    -10.798155    13.523568    -65.255501    31.174829    -19.504436    -102.467941    60.257034    4.539923    -28.635435    6.926544    12.057225    -5.829673    36.200344    7.797883    16.650797    -6.246482    -19.210804    6.230748    -26.838440    -17.277822    -7.095199    54.934059    -37.017521    26.444159    -1.575884    28.611916    12.652834    3.842851    -13.292620    -14.091736    1.115933    2.965694    -1.230542    -58.051571    -32.369053    -25.423361    8.349883    43.447853    -4.173340    6.130054    3.497576    -17.990358    1.602542    -1.844430    -1.737712    
10.005836    88.573967    91.715012    26.950184    47.300171    -99.623505    0.363566    -5.705574    0.294170    17.862307    9.484480    -1.217619    9.275136    24.012880    -23.638506    30.040445    10.051344    -22.552256    12.463295    -0.707421    -18.373682    -10.684483    13.065967    -65.808876    31.854200    -18.952770    -100.081932    60.203339    4.666648    -27.987228    7.025567    12.215908    -5.826145    36.685760    7.745703    15.994404    -6.201045    -19.132511    6.270678    -26.540461    -17.247822    -6.961564    54.486294    -36.954052    26.480803    -1.520359    28.731451    12.376000    3.750437    -13.345643    -14.135077    1.123455    2.824853    -1.239135    -58.447433    -32.659447    -25.937260    9.585685    46.952969    -4.762135    6.066428    3.738179    -17.853882    1.630645    -2.176946    -1.769018    
9.873841    88.541245    91.720810    26.292896    47.135708    -98.915771    0.447251    -5.601167    0.057530    17.729944    9.388708    -1.431169    9.023101    23.987999    -23.645432    29.935566    9.734290    -22.500212    12.528852    -0.958906    -18.417213    -10.591268    12.572594    -66.345863    32.589783    -18.375984    -97.496658    60.165283    4.761906    -27.327091    7.113408    12.358674    -5.845394    37.163002    7.672623    15.310859    -6.151512    -19.049572    6.351067    -26.228550    -17.212816    -6.821715    53.995964    -36.821945    26.495434    -1.441926    28.830441    12.111138    3.692065    -13.384394    -14.154002    1.116344    2.657874    -1.231645    -58.860886    -32.959972    -26.435656    11.073968    50.520515    -5.652262    6.025671    3.954095    -17.653917    1.653674    -2.465493    -1.794740    
9.728406    88.519684    91.732628    25.650852    46.944592    -98.293747    0.523457    -5.506709    -0.180425    17.616447    9.274748    -1.645735    8.765326    23.937414    -23.640625    29.794428    9.417357    -22.440805    12.623199    -1.245491    -18.444336    -10.522839    12.060169    -66.839867    33.383560    -17.764591    -94.771423    60.164841    4.875226    -26.655500    7.185559    12.482595    -5.887239    37.616123    7.593793    14.615190    -6.096997    -18.964970    6.481702    -25.905207    -17.174162    -6.680209    53.473465    -36.618172    26.479601    -1.347772    28.902367    11.882430    3.668395    -13.405386    -14.146100    1.093058    2.466040    -1.206354    -59.282467    -33.273144    -26.922916    12.848941    54.066944    -6.872805    6.011368    4.132965    -17.398041    1.668644    -2.700625    -1.811597    
